<svg width="20" height="20" viewBox="0 0 20 20" fill="none" xmlns="http://www.w3.org/2000/svg">
<path d="M7.95833 14.646C7.84722 14.646 7.74306 14.6285 7.64583 14.5935C7.54861 14.5591 7.45833 14.5002 7.375 14.4168L3.79167 10.8335C3.63889 10.6807 3.56583 10.4827 3.5725 10.2393C3.57972 9.99655 3.65972 9.79877 3.8125 9.646C3.96528 9.49322 4.15972 9.41683 4.39583 9.41683C4.63195 9.41683 4.82639 9.49322 4.97917 9.646L7.95833 12.6252L15.0208 5.56266C15.1736 5.40989 15.3717 5.3335 15.615 5.3335C15.8578 5.3335 16.0556 5.40989 16.2083 5.56266C16.3611 5.71544 16.4375 5.91322 16.4375 6.156C16.4375 6.39933 16.3611 6.59739 16.2083 6.75016L8.54167 14.4168C8.45833 14.5002 8.36806 14.5591 8.27083 14.5935C8.17361 14.6285 8.06945 14.646 7.95833 14.646Z" fill="white" fill-opacity="0.7"/>
</svg>
