<?xml version="1.0" encoding="utf-8"?>
<!-- Generator: Adobe Illustrator 26.0.2, SVG Export Plug-In . SVG Version: 6.00 Build 0)  -->
<svg version="1.1" id="Layer_1" xmlns="http://www.w3.org/2000/svg" xmlns:xlink="http://www.w3.org/1999/xlink" x="0px" y="0px"
	 viewBox="0 0 227.3 344.9" style="enable-background:new 0 0 227.3 344.9;" xml:space="preserve">
<style type="text/css">
	.st0{fill:#0E7033;}
	.st1{fill:#76A42D;}
	.st2{fill:#DEDC00;}
	.st3{fill:#AFC919;}
	.st4{fill:#854D17;}
</style>
<path class="st0" d="M45.5,157.1c0.2,0,0.4-0.1,0.6-0.1v0.1c1-0.1,1.9-0.1,2.9,0c3.8,0.3,7.4,2.1,9.9,4.9c2.5,2.7,3.9,6.2,4,9.9
	c0,0.5,0.1,1.1,0,2c0,0.1-0.1,0.3-0.1,0.5v0.1c-0.1,2.2,1.6,4.1,3.8,4.3v0.1h0.5c0.2,0,0.5-0.1,0.7-0.1c0.5-0.1,1.1-0.1,1.6-0.1
	c2,0.1,4.1,0.5,5.9,1.4c1.8,0.9,3.4,2,4.8,3.4c1.4,1.4,2.4,3.2,3.2,5c0.7,1.8,1.1,3.6,1.1,5.5v0.8c0,0.1-0.1,0.3-0.1,0.5
	c-0.1,2.2,1.6,4.2,3.8,4.3c0.4,0,0.8,0,1.2-0.1c1.1-0.1,2,0,3.1,0.2c3.7,0.6,7,2.5,9.5,5.3c5.3,6.4,2,11.9,2.6,19.3
	c0.5,5.9,4.8,8.7,9.1,8.8h0.1c4.3-0.1,8.7-2.9,9.1-8.8c0.6-7.4-2.6-12.9,2.6-19.3c2.4-2.9,5.7-4.8,9.5-5.3c1-0.1,2-0.2,3.1-0.2
	c0.4,0.1,0.7,0.1,1.1,0.1c2-0.1,3.7-1.7,3.8-3.7v-0.6c0-0.1,0-0.3-0.1-0.5v-0.8c0-1.9,0.3-3.7,1.1-5.5c0.7-1.8,1.8-3.6,3.2-5
	c1.4-1.4,3-2.6,4.8-3.4c2.4-1.1,5-1.6,7.6-1.4c0.2,0.1,0.5,0.1,0.7,0.1h0.5v-0.1c2.2-0.1,3.9-2,3.8-4.3v-0.1c0-0.1,0-0.3-0.1-0.5v-2
	c0.1-3.7,1.5-7.2,4-9.9c2.6-2.8,6.1-4.6,9.9-4.9c1-0.1,1.9-0.1,2.9,0v-0.1c2.2,0.5,4.4-0.9,4.9-3.1c0.1-0.3,0.1-0.7,0.1-1.1v-0.1
	c0-0.3-0.1-0.5-0.1-0.7l-0.2-1.2c-0.8-4.8-1.8-9.6-3.4-14.3v0.1c-0.5-1.8-2.3-3-4.2-2.9c-0.6,0.1-1.2,0.2-1.7,0.5
	c-0.1,0.1-0.2,0.1-0.3,0.1c-1.4,0.7-2.9,1.2-4.5,1.3c-0.4,0.1-0.8,0.1-1.1,0.1c-2,0-3.9-0.6-6-0.6h-0.1c-4.1,0.1-7.6,3.2-7.9,7.2
	c-0.4,4.9,0.7,8.5-2.6,12.8c-1.8,2.3-4.4,4.1-7.3,4.8c-0.8,0.2-1.6,0.3-2.4,0.3c-2.2,0-4.3-0.5-6.5-0.6c-2,0-4.1,0.7-5.7,1.8
	c-0.8,0.6-1.5,1.3-2,2.1c-1.1,1.6-0.9,3.6-1,5.4c0.3,9.7-6.5,16.7-15.6,16.8h-0.1c-9.1-0.1-15.9-7.1-15.6-16.8
	c-0.1-1.8,0.1-3.7-1-5.4c-0.5-0.9-1.2-1.6-2-2.1c-1.6-1.2-3.7-1.9-5.7-1.8c-2.2,0-4.3,0.6-6.4,0.6c-0.8,0-1.6-0.1-2.4-0.3
	c-2.8-0.7-5.5-2.5-7.3-4.8c-3.3-4.2-2.2-7.9-2.6-12.8c-0.3-4-3.7-7.2-7.9-7.2h-0.1c-2,0-3.9,0.6-6,0.6c-0.4,0-0.8,0-1.1-0.1
	c-1.6-0.2-3.1-0.7-4.5-1.3c-0.2-0.1-0.4-0.3-0.7-0.3c-0.4-0.2-0.9-0.3-1.3-0.3c-1.9-0.1-3.6,1.1-4.1,2.9v-0.1
	c-1.4,4.7-2.6,9.5-3.4,14.3l-0.2,1.2c0,0.1-0.1,0.3-0.1,0.4c0,0.1,0,0.3-0.1,0.3v0.1c-0.1,2.2,1.6,4.1,3.9,4.3
	C45.3,157.1,45.4,157.1,45.5,157.1L45.5,157.1z"/>
<path class="st1" d="M56.4,127.9h0.2c0.4,0,1.1-0.1,1.8-0.2c1.1-0.2,2.6-0.4,4.1-0.4h0.1c3.9,0,7.7,1.5,10.6,4.2
	c3,2.7,4.7,6.4,5,10.3c0.1,1.5,0.1,2.8,0.1,4c0,2.2,0,4.2,1.9,5.7c1.5,1.1,3.1,1,4.8,0.7c1.1-0.1,2.4-0.3,3.7-0.3h0.5
	c3.5,0,7,1.1,9.9,3.2c3.4,2.3,5.6,5.6,6.3,9.3l0.1,1.4c0,0,0.1,1.8,0.1,3.2c0,2.2,0.5,4.7,2,6.4c1.5,1.6,3.2,2.6,5.8,2.8h0.1
	c2.6-0.1,4.3-1.1,5.8-2.8c1.5-1.6,2-4.2,2-6.4c0-1.4,0.1-3.2,0.1-3.2l0.1-1.4c0.8-3.7,3-7,6.3-9.3c2.9-2,6.4-3.2,9.9-3.2h0.5
	c1.4,0.1,2.6,0.2,3.7,0.3c1.7,0.2,3.3,0.4,4.8-0.7c1.9-1.4,1.9-3.5,1.9-5.7c0-1.2,0-2.5,0.1-4c0.3-3.9,2.1-7.6,5-10.3
	c2.9-2.6,6.6-4.1,10.6-4.2h0.1c1.6,0,3,0.2,4.1,0.4c0.7,0.1,1.4,0.2,1.8,0.2h0.2c1.8-0.2,3.4-1.2,4.3-2.8c1.6-2.7,0.1-5.4-1.4-7.7
	c-1.8-3-3.8-5.8-6-8.5c-2.4-2.9-4.7-6.9-8.9-6.9c-1.8,0-3.9,0.6-5.2,1.7c-2,1.8-2.3,4.4-2.9,7.2c-0.6,2.8-1.8,6.2-4.9,9.1
	c-2.6,2.4-7.2,3.2-10.8,3.6c-4,0.5-6.8,3.9-8.1,8.4c-1.2,4.7-6.1,9.7-13.4,9.7h-0.2c-7.2,0-12.1-5.1-13.4-9.7
	c-1.2-4.6-4.1-7.9-8.1-8.4c-3.6-0.5-8.2-1.2-10.8-3.6c-3.2-2.8-4.4-6.3-4.9-9.1c-0.6-2.8-0.9-5.3-2.9-7.2c-1.2-1.2-3.4-1.7-5.2-1.7
	c-4.2,0-6.6,4-8.9,6.9c-2.2,2.7-4.2,5.5-6,8.5c-1.4,2.4-3.1,5-1.4,7.7C53,126.7,54.7,127.6,56.4,127.9z"/>
<path class="st2" d="M100.7,80.3c3,2.2,5.3,5.2,6.4,8.7l0.7,1.7c1.1,2.4,3.4,3.9,6,4h0.1c2.6-0.1,4.9-1.6,6-4l0.7-1.7
	c1.1-3.6,3.4-6.6,6.4-8.7c2-1,2.9-3.4,1.9-5.5c-0.3-0.5-0.5-0.9-0.9-1.2c-1.4-1.7-3.7-3.5-4.9-5.5c-2.6-4.1-4.6-7.4-9-7.4h-0.2
	c-4.3,0-6.4,3.2-9,7.4c-1.2,2-3.5,3.8-4.9,5.5c-0.8,0.7-1.2,1.7-1.3,2.8C98.3,78,99.2,79.6,100.7,80.3z"/>
<path class="st3" d="M79,98.2c3.6,3.4,4.3,7.4,4.9,10.3c0.1,0.3,0.1,0.6,0.2,0.9c0.5,2.1,1.2,3.7,2.6,4.8c0,0,0.5,0.4,2,0.9
	c1.4,0.4,3,0.7,4.5,0.9c1.2,0.2,2.5,0.5,3.7,0.9c3.2,1.2,5.8,3.4,7.7,6.2c1.1,1.5,1.8,3.2,2.5,4.8c0.7,1.8,0.9,3.6,2.5,4.8
	c1.1,0.9,2.4,1.4,4,1.4h0.2c1.5,0,2.9-0.5,4-1.4c1.6-1.2,1.8-3,2.5-4.8c0.7-1.7,1.4-3.4,2.5-4.8c1.9-2.8,4.6-4.9,7.7-6.2
	c1.2-0.5,2.4-0.8,3.7-0.9c1.5-0.2,3.2-0.5,4.5-0.9c1.6-0.5,2-0.9,2-0.9c1.3-1.2,2.1-2.7,2.6-4.8c0.1-0.3,0.1-0.5,0.2-0.9
	c0.6-3,1.4-7,4.9-10.3c1.3-0.8,2-2.2,2-3.7c-0.1-1.5-1-2.8-2.3-3.4c-1.4-1.1-2.9-2.5-4.3-3.5c-1.1-0.8-2.2-1.5-3.4-2
	c-1.8-0.8-3.6-1.1-5.7-0.5c-3.2,0.9-6,3.3-6.8,6.5l-0.8,2.1c-2.2,5.1-7.2,8.8-13.2,8.9h-0.1c-5.9-0.1-11.1-3.7-13.2-8.9l-0.8-2.1
	c-0.9-3.2-3.7-5.7-6.8-6.5c-2.1-0.6-4-0.3-5.7,0.5c-1.2,0.5-2.2,1.2-3.4,2c-1.4,1-2.9,2.4-4.3,3.5c-1.2,0.7-2.2,1.9-2.3,3.4
	C77,95.9,77.8,97.4,79,98.2L79,98.2z"/>
<path class="st4" d="M187.3,171.6c-0.3-3.9-3.6-6.8-7.5-6.8h-0.7c-3.9,0.3-6.8,3.6-6.8,7.4c0,0-0.3,2.2,0.7,5.7
	c1.4,5.1,0.1,8.1-1.8,9.7c-1.2,1.1-2.7,1.6-4.3,1.6c-1.5,0-2.9-0.5-3.8-1.2c-1.4-1.1-3.2-1.7-5-1.7c-4.1,0.1-7.4,3.6-7.3,7.8v-0.1
	c0,0-0.1,1.2,0.6,5.1c0.6,3.1,0.9,6.6-1.7,9c-1.1,1-2.7,1.5-4.3,1.5c-1.4,0-2.7-0.4-3.7-1.1h-0.1c-1.6-1.1-3.6-1.6-5.5-1.3
	c-2.4,0.4-4.5,2-5.6,4.2c-1.2,2.6-0.6,5.1-0.3,7.8c0.7,5.7,0.3,11.8-3.9,16.2c-3.4,3.4-7.8,5.3-12.6,5.4h-0.1
	c-4.8-0.1-9.3-2-12.6-5.4c-4.3-4.3-4.7-10.5-3.9-16.2c0.3-2.7,1-5.2-0.3-7.8c-1.1-2.2-3.2-3.8-5.6-4.2c-2-0.3-3.9,0.1-5.5,1.3h-0.1
	c-1,0.7-2.3,1.1-3.7,1.1c-1.6,0-3.2-0.5-4.3-1.5c-2.6-2.4-2.3-5.9-1.7-9c0.7-3.7,0.6-5.1,0.6-5.1v0.1c0.1-4.1-3.2-7.6-7.3-7.8
	c-1.8-0.1-3.6,0.5-5,1.7c-0.9,0.8-2.3,1.2-3.8,1.2c-1.6,0-3.1-0.5-4.3-1.6c-1.9-1.6-3.2-4.7-1.8-9.7c1-3.5,0.7-5.7,0.7-5.7
	c0-3.8-3-7.1-6.8-7.4h-0.7c-3.9,0-7.2,3-7.5,6.8l-0.1,0.2c0.3,12,3.6,23.9,9.3,34.4c6.1,11.2,15,19.7,24.2,28.2
	c8.7,8,17.2,16.4,23.4,26.6c3,5,4.9,10.3,7,15.7c1.8,4.4,4.5,7.5,9.5,7.5h0.5c5,0,7.8-3.2,9.5-7.5c2.2-5.4,4-10.7,7-15.7
	c6.1-10.2,14.7-18.6,23.4-26.6c9.2-8.5,18.1-17,24.2-28.2c5.7-10.5,9-22.4,9.3-34.4L187.3,171.6L187.3,171.6z"/>
</svg>
