<svg xmlns="http://www.w3.org/2000/svg" viewBox="-191 224.1 227.3 344.9"><path fill="#0E7033" d="M-181 373.1c.3 0 .6-.1.9-.1v.1c1.5-.1 2.9-.2 4.4 0 5.8.5 11.2 3.2 15.1 7.5 3.8 4.1 6 9.5 6.1 15.1 0 .7.1 1.7 0 3 0 .2-.1.4-.1.7v.1c-.2 3.4 2.4 6.3 5.8 6.5v.1h.8c.3 0 .7-.1 1-.1.8-.1 1.6-.1 2.5-.1 3.1.1 6.2.8 9 2.1 2.7 1.3 5.2 3 7.3 5.2 2.1 2.2 3.7 4.8 4.8 7.6 1 2.7 1.6 5.5 1.6 8.3v1.2c0 .2-.1.4-.1.7-.2 3.4 2.4 6.4 5.8 6.6.6 0 1.2 0 1.8-.1 1.6-.1 3.1 0 4.7.3 5.6.9 10.7 3.8 14.4 8.1 8.1 9.7 3.1 18.1 4 29.3.7 9 7.3 13.3 13.9 13.4h.2c6.5-.1 13.2-4.4 13.9-13.4.9-11.2-4-19.6 4-29.3 3.6-4.4 8.7-7.3 14.4-8.1 1.5-.2 3.1-.3 4.7-.3.6.1 1.1.2 1.7.1 3.1-.2 5.6-2.6 5.8-5.7v-.9c0-.2 0-.4-.1-.7v-1.2c0-2.9.5-5.7 1.6-8.3 1.1-2.8 2.7-5.4 4.8-7.6 2.1-2.2 4.5-4 7.3-5.2 3.6-1.7 7.6-2.4 11.5-2.1.3.1.7.1 1 .1h.8v-.1c3.4-.2 6-3.1 5.8-6.5v-.1c0-.2 0-.5-.1-.7v-3c.2-5.6 2.3-11 6.1-15.1 3.9-4.3 9.3-7 15.1-7.5 1.5-.1 2.9-.1 4.4 0v-.1c3.3.7 6.7-1.4 7.4-4.7.1-.5.2-1.1.1-1.6v-.1c0-.4-.1-.7-.2-1.1l-.3-1.8c-1.2-7.3-2.8-14.6-5.1-21.7v.2c-.8-2.8-3.5-4.6-6.4-4.4-.9.1-1.8.3-2.6.7-.1.1-.3.2-.4.2-2.1 1.1-4.4 1.8-6.8 2-.6.1-1.2.1-1.7.1-3.1 0-6-.9-9.1-.9H.3c-6.3.1-11.5 4.9-12 11-.6 7.4 1.1 12.9-3.9 19.4-2.8 3.5-6.7 6.2-11.1 7.3-1.2.3-2.5.4-3.7.4-3.3 0-6.6-.8-9.9-.9-3.1 0-6.2 1-8.7 2.8-1.2.9-2.3 2-3.1 3.2-1.6 2.5-1.4 5.4-1.5 8.2.4 14.7-9.9 25.4-23.7 25.5h-.2c-13.8-.1-24.1-10.8-23.7-25.5-.1-2.8.1-5.7-1.5-8.2-.8-1.3-1.9-2.4-3.1-3.2-2.5-1.8-5.6-2.9-8.7-2.8-3.3 0-6.6.9-9.8.9-1.2 0-2.5-.1-3.7-.4-4.3-1.1-8.3-3.8-11.1-7.3-5-6.4-3.4-12-3.9-19.4-.5-6.1-5.7-10.9-12-11h-.1c-3.1 0-6 .9-9.1.9-.6 0-1.2 0-1.7-.1-2.4-.3-4.7-1-6.8-2-.3-.2-.6-.4-1-.5-.6-.3-1.3-.4-2-.5-2.9-.2-5.5 1.7-6.3 4.4v-.2c-2.2 7.1-3.9 14.4-5.1 21.7l-.3 1.8c0 .2-.1.4-.1.6 0 .2 0 .4-.1.5v.1c-.2 3.4 2.5 6.3 5.9 6.5.3.1.5.1.7.1z"/><path fill="#76A42D" d="M-164.5 328.8h.3c.6 0 1.7-.2 2.7-.3 1.7-.3 3.9-.6 6.3-.6h.2c6 0 11.7 2.3 16.1 6.4 4.5 4.1 7.2 9.7 7.6 15.7.2 2.3.2 4.3.2 6.1 0 3.3 0 6.4 2.9 8.6 2.3 1.7 4.7 1.5 7.3 1.1 1.7-.2 3.6-.4 5.6-.5h.7c5.3 0 10.7 1.7 15.1 4.8 5.1 3.5 8.5 8.5 9.6 14.1l.2 2.1s.1 2.8.1 4.9c0 3.3.8 7.2 3.1 9.7 2.3 2.5 4.9 3.9 8.8 4.2h.2c3.9-.2 6.5-1.7 8.8-4.2 2.3-2.5 3.1-6.4 3.1-9.7 0-2.1.1-4.9.1-4.9l.2-2.1c1.2-5.6 4.6-10.6 9.6-14.1 4.4-3.1 9.8-4.8 15.1-4.8h.7c2.1.1 4 .3 5.6.5 2.6.3 5 .6 7.3-1.1 2.9-2.2 2.9-5.3 2.9-8.6 0-1.8 0-3.8.2-6.1.4-6 3.2-11.5 7.6-15.7 4.4-4 10.1-6.3 16.1-6.4H0c2.5 0 4.6.3 6.3.6 1.1.2 2.1.3 2.7.3h.3c2.7-.3 5.2-1.9 6.6-4.2 2.5-4.1.1-8.2-2.1-11.7-2.7-4.5-5.8-8.8-9.1-12.9-3.6-4.4-7.2-10.5-13.5-10.5-2.8 0-6 .9-7.9 2.6-3.1 2.8-3.5 6.7-4.4 10.9-.9 4.2-2.7 9.4-7.5 13.8-4 3.7-11 4.8-16.4 5.5-6.1.8-10.4 5.9-12.3 12.8-1.9 7.1-9.3 14.8-20.3 14.8h-.3c-11 0-18.4-7.7-20.3-14.8-1.8-7-6.2-12-12.3-12.8-5.4-.7-12.4-1.9-16.4-5.5-4.8-4.3-6.7-9.6-7.5-13.8-.9-4.2-1.3-8-4.4-10.9-1.9-1.8-5.1-2.6-7.9-2.6-6.4 0-10 6.1-13.5 10.5-3.3 4.1-6.4 8.4-9.1 12.9-2.2 3.6-4.7 7.6-2.1 11.7 1.7 2.3 4.3 3.8 6.9 4.2z"/><path fill="#DEDC00" d="M-97.2 256.4c4.6 3.3 8.1 7.9 9.7 13.3l1 2.6c1.6 3.6 5.1 6 9.1 6.1h.2c3.9-.1 7.5-2.5 9.1-6.1l1-2.6c1.7-5.4 5.2-10 9.7-13.3 3.1-1.5 4.4-5.2 2.9-8.3-.4-.7-.8-1.4-1.4-1.9-2.1-2.6-5.6-5.3-7.5-8.4-3.9-6.3-7-11.2-13.7-11.2h-.3c-6.6 0-9.8 4.9-13.7 11.2-1.9 3-5.3 5.8-7.5 8.4-1.2 1.1-1.9 2.6-2 4.2-.2 2.6 1.2 4.9 3.4 6z"/><path fill="#AFC919" d="M-130.1 283.6c5.4 5.1 6.6 11.2 7.4 15.7.1.4.2.9.3 1.3.7 3.2 1.9 5.6 3.9 7.3 0 0 .7.6 3.1 1.3 2.1.6 4.6 1 6.9 1.3 1.9.3 3.8.7 5.6 1.4 4.8 1.8 8.8 5.2 11.7 9.4 1.6 2.3 2.8 4.8 3.8 7.3 1 2.7 1.4 5.4 3.8 7.3 1.7 1.4 3.7 2.1 6.1 2.1h.3c2.3 0 4.4-.7 6.1-2.1 2.4-1.9 2.8-4.6 3.8-7.3 1-2.6 2.2-5.1 3.8-7.3 2.9-4.2 7-7.5 11.7-9.4 1.8-.7 3.7-1.2 5.6-1.4 2.3-.3 4.8-.7 6.9-1.3 2.4-.7 3.1-1.3 3.1-1.3 2-1.8 3.2-4.1 3.9-7.3.1-.4.2-.8.3-1.3.9-4.5 2.1-10.6 7.4-15.7 2-1.2 3.1-3.4 3-5.7-.1-2.3-1.5-4.2-3.5-5.2-2.2-1.6-4.4-3.8-6.6-5.3-1.7-1.2-3.4-2.3-5.1-3-2.7-1.2-5.5-1.6-8.7-.7-4.8 1.3-9.1 5-10.4 9.9l-1.2 3.2c-3.3 7.8-11 13.4-20.1 13.5h-.2c-9-.1-16.8-5.6-20.1-13.5l-1.2-3.2c-1.4-4.9-5.6-8.6-10.4-9.9-3.2-.9-6.1-.4-8.7.7-1.8.8-3.4 1.8-5.1 3-2.2 1.5-4.4 3.7-6.6 5.3-1.9 1-3.3 2.9-3.5 5.2-.2 2.3 1 4.5 2.9 5.7z"/><path fill="#854D17" d="M34.5 395.2c-.5-6-5.5-10.4-11.4-10.4h-1c-5.9.5-10.4 5.5-10.4 11.3 0 0-.4 3.3 1.1 8.6 2.2 7.7.2 12.3-2.8 14.8-1.8 1.6-4.1 2.4-6.5 2.4-2.3 0-4.4-.8-5.8-1.9-2.1-1.7-4.8-2.6-7.6-2.6-6.3.2-11.3 5.5-11.1 11.8v-.1s-.2 1.9.9 7.7c.9 4.7 1.3 10.1-2.6 13.7-1.7 1.5-4.1 2.3-6.5 2.3-2.1 0-4.1-.6-5.6-1.7h-.1c-2.4-1.7-5.5-2.4-8.4-2-3.7.6-6.9 3-8.5 6.4-1.9 3.9-.9 7.8-.4 11.9 1 8.7.5 18-6 24.6-5.1 5.1-11.8 8.1-19.1 8.2h-.1c-7.3-.1-14.1-3-19.1-8.2-6.5-6.6-7.1-15.9-6-24.6.5-4.1 1.5-7.9-.4-11.9-1.6-3.4-4.8-5.8-8.5-6.4-3-.5-6 .2-8.4 2h-.1c-1.5 1.1-3.5 1.7-5.6 1.7-2.4 0-4.8-.8-6.5-2.3-3.9-3.6-3.5-9-2.6-13.7 1.1-5.7.9-7.7.9-7.7v.1c.2-6.3-4.8-11.6-11.1-11.8-2.8-.1-5.5.8-7.6 2.6-1.4 1.2-3.5 1.9-5.8 1.9-2.4 0-4.7-.8-6.5-2.4-2.9-2.5-4.9-7.1-2.8-14.8 1.5-5.3 1.1-8.6 1.1-8.6 0-5.8-4.5-10.8-10.4-11.3h-1c-5.9 0-10.9 4.5-11.4 10.4l-.1.3c.4 18.3 5.4 36.3 14.1 52.3 9.3 17.1 22.8 29.9 36.8 42.8 13.2 12.2 26.2 25 35.5 40.5 4.6 7.6 7.4 15.7 10.7 23.9 2.7 6.7 6.9 11.4 14.5 11.4h.7c7.6 0 11.8-4.8 14.5-11.4 3.4-8.2 6.1-16.2 10.7-23.9 9.3-15.5 22.3-28.3 35.5-40.5 14-12.9 27.5-25.8 36.8-42.8 8.7-16 13.7-34 14.1-52.3l-.1-.3z"/></svg>