<svg width="80" height="50" viewBox="0 0 80 50" fill="none" xmlns="http://www.w3.org/2000/svg">
<g clip-path="url(#clip0_3_3470)">
<path fill-rule="evenodd" clip-rule="evenodd" d="M30.5735 27.43L26.7193 30.5141C26.6675 30.4367 26.6372 30.3436 26.637 30.2435L26.6004 11.5677C26.5994 11.0718 25.9456 10.8926 25.6919 11.3188L16.3547 27.0037C16.2666 27.1517 16.1071 27.2424 15.9348 27.2424H14.6013C14.4296 27.2424 14.2705 27.1523 14.1822 27.005L4.84799 11.4356C4.59312 11.0105 3.94028 11.1912 3.94028 11.6869V30.2426C3.94028 30.5124 3.72152 30.7312 3.45165 30.7312H0.488626C0.218766 30.7312 0 30.5124 0 30.2426V2.48863C0 2.21877 0.218765 2 0.488626 2H3.08745C3.25992 2 3.41962 2.09093 3.50765 2.23924L14.9276 21.481C15.1176 21.8012 15.5814 21.7998 15.7695 21.4785L27.03 2.24178C27.1176 2.09203 27.2782 2 27.4517 2H30.0492C30.3188 2 30.5375 2.21834 30.5379 2.48793L30.5735 27.43ZM41.24 18.8949L37.1356 22.1792V2.48863C37.1356 2.21877 37.3543 2 37.6242 2H40.7514C41.0213 2 41.24 2.21877 41.24 2.48863V18.8949Z" fill="#7265FB"/>
<path fill-rule="evenodd" clip-rule="evenodd" d="M26.873 32.199V48.3212C26.873 48.5911 27.0918 48.8098 27.3617 48.8098H40.5819C44.1665 48.8098 46.8891 48.1394 48.7498 46.7986C50.6379 45.4578 51.5819 43.5424 51.5819 41.0524C51.5819 39.1917 51.103 37.6594 50.1453 36.4554C49.4325 35.5389 48.5225 34.8346 47.4155 34.3425C47.0048 34.16 46.9429 33.5133 47.3042 33.246C47.9771 32.7479 48.5411 32.1349 48.9961 31.4069C49.7075 30.3124 50.0632 29.0127 50.0632 27.5077C50.0632 25.1818 49.1603 23.3622 47.3543 22.0488C45.9813 21.0348 44.1598 20.4123 41.89 20.1811L37.8637 23.4032H39.3916C41.4986 23.4032 43.113 23.8 44.2349 24.5935C45.3842 25.3597 45.9588 26.4953 45.9588 28.0002C45.9588 29.5052 45.3842 30.6544 44.2349 31.448C43.113 32.2141 41.4986 32.5972 39.3916 32.5972H31.4661C31.1963 32.5972 30.9775 32.3784 30.9775 32.1086V28.9142L26.873 32.199ZM45.6715 44.336C44.4949 45.1021 42.7436 45.4852 40.4178 45.4852H31.4661C31.1963 45.4852 30.9775 45.2664 30.9775 44.9966V36.4104C30.9775 36.1406 31.1963 35.9218 31.4661 35.9218H40.4178C45.0968 35.9218 47.4364 37.5226 47.4364 40.724C47.4364 42.3658 46.8481 43.5698 45.6715 44.336ZM58.9035 45.8546C61.0378 48.0437 64.0204 49.1382 67.8512 49.1382C71.682 49.1382 74.6646 48.0573 76.7989 45.8957C78.9332 43.7066 80.0004 40.5462 80.0004 36.4144V20.5672C80.0004 20.2974 79.7816 20.0786 79.5117 20.0786H76.5077C76.2378 20.0786 76.0191 20.2974 76.0191 20.5672V36.2502C76.0191 39.3696 75.3213 41.6954 73.9258 43.2278C72.5303 44.7327 70.5191 45.4852 67.8922 45.4852C62.5017 45.4852 59.8064 42.4069 59.8064 36.2502V20.5672C59.8064 20.2974 59.5877 20.0786 59.3178 20.0786H56.1906C55.9207 20.0786 55.702 20.2974 55.702 20.5672V36.4144C55.702 40.5188 56.7691 43.6656 58.9035 45.8546Z" fill="#26E27C"/>
</g>
<defs>
<clipPath id="clip0_3_3470">
<rect width="80" height="50" fill="white"/>
</clipPath>
</defs>
</svg>
