<?xml version="1.0" encoding="utf-8"?>
<!-- Generator: Adobe Illustrator 26.0.2, SVG Export Plug-In . SVG Version: 6.00 Build 0)  -->
<svg version="1.1" xmlns="http://www.w3.org/2000/svg" xmlns:xlink="http://www.w3.org/1999/xlink" x="0px" y="0px"
	 viewBox="0 0 294 114" style="enable-background:new 0 0 294 114;" xml:space="preserve">
<g id="Layer_1">
	<g>
		<path d="M111.5,10.1v55.8c0,4.7,3.8,8.4,8.4,8.4h17.3c4.7,0,8.4,3.8,8.4,8.4v0c0,4.7-3.8,8.4-8.4,8.4h-34.9
			c-4.7,0-8.4-3.8-8.4-8.4V10.1c0-4.7,3.8-8.4,8.4-8.4h0.8C107.7,1.6,111.5,5.4,111.5,10.1z"/>
		<path d="M212.6,10.1L212.6,10.1c0,4.7-3.8,8.4-8.4,8.4h-18.9c-4.7,0-8.4,3.8-8.4,8.4v4.4c0,4.7,3.8,8.4,8.4,8.4h17.9
			c4.7,0,8.4,3.8,8.4,8.4v0c0,4.7-3.8,8.4-8.4,8.4h-17.9c-4.7,0-8.4,3.8-8.4,8.4v17.7c0,4.7-3.8,8.4-8.4,8.4h-0.8
			c-4.7,0-8.4-3.8-8.4-8.4V10.1c0-4.7,3.8-8.4,8.4-8.4h36.6C208.8,1.6,212.6,5.4,212.6,10.1z"/>
	</g>
	<path d="M253.9,20.8L253.9,20.8c-0.4,1.1-0.4,2.3,0,3.4l9,26.8c1.2,3.4-1.4,7-5,7h-17.1h-0.1h-14.9c-2.2,0-4.3,1.4-5,3.5l-7.7,22.1
		c-1.2,3.4,1.3,7,5,7h7.8c2.3,0,4.3-1.5,5-3.6l3-8.9c0.7-2.2,2.7-3.6,5-3.6H267c2.3,0,4.3,1.5,5,3.6l3,8.9c0.7,2.2,2.7,3.6,5,3.6
		h7.9c3.6,0,6.2-3.6,5-7l-24.7-70.3c-1.5-4.3-7.4-4.8-9.6-0.8l-4.2,7.5C254.2,20.2,254,20.5,253.9,20.8z"/>
	<path d="M42.2,20.7L42.2,20.7c-0.4,1.1-0.4,2.3,0,3.4l9,26.8c1.2,3.4-1.4,7-5,7H29h-0.1H14c-2.2,0-4.3,1.4-5,3.5L1.3,83.5
		c-1.2,3.4,1.3,7,5,7h7.8c2.3,0,4.3-1.5,5-3.6l3-8.9c0.7-2.2,2.7-3.6,5-3.6h28.1c2.3,0,4.3,1.5,5,3.6l3,8.9c0.7,2.2,2.7,3.6,5,3.6
		h7.9c3.6,0,6.2-3.6,5-7L56.4,13.2c-1.5-4.3-7.4-4.8-9.6-0.8l-4.2,7.5C42.4,20.1,42.3,20.4,42.2,20.7z"/>
	<path d="M266.8,98.4L266.8,98.4c-0.1,0.2-0.1,0.5,0,0.7l1.9,5.8c0.2,0.7-0.3,1.5-1,1.5h-3.6h0H261c-0.5,0-0.9,0.3-1,0.8l-1.6,4.8
		c-0.3,0.7,0.3,1.5,1,1.5h1.6c0.5,0,0.9-0.3,1-0.8l0.6-1.9c0.1-0.5,0.6-0.8,1-0.8h5.8c0.5,0,0.9,0.3,1,0.8l0.6,1.9
		c0.1,0.5,0.6,0.8,1,0.8h1.6c0.8,0,1.3-0.8,1-1.5l-5.1-15.2c-0.3-0.9-1.5-1-2-0.2l-0.9,1.6C266.9,98.3,266.9,98.3,266.8,98.4z"/>
</g>
<g id="Layer_3">
	<g>
		<path d="M234.7,96.5h8.4c1.1,0,2.1,0.9,2.1,2.1l0,0c0,1.1-0.9,2.1-2.1,2.1h-1.3c-0.4,0-0.8,0.4-0.8,0.8v9.8c0,1.1-0.9,2.1-2.1,2.1
			h-0.1c-1.1,0-2.1-0.9-2.1-2.1v-9.8c0-0.4-0.4-0.8-0.8-0.8h-1.3c-1.1,0-2.1-0.9-2.1-2.1l0,0C232.6,97.5,233.5,96.5,234.7,96.5z"/>
		<path d="M251.1,108v0.1c0,0.6,0.5,1.2,1.2,1.2h4.2c0.6,0,1.2,0.5,1.2,1.2v1.7c0,0.6-0.5,1.2-1.2,1.2h-8.5c-0.6,0-1.2-0.5-1.2-1.2
			V97.7c0-0.6,0.5-1.2,1.2-1.2h8.4c0.6,0,1.2,0.5,1.2,1.2v1.7c0,0.6-0.5,1.2-1.2,1.2h-4.1c-0.6,0-1.2,0.5-1.2,1.2l0,0
			c0,0.6,0.5,1.2,1.2,1.2h3.5c0.6,0,1.2,0.5,1.2,1.2v1.6c0,0.6-0.5,1.2-1.2,1.2h-3.5C251.6,106.8,251.1,107.4,251.1,108z"/>
		<path d="M289.9,96.5h1.4c1,0,1.8,0.8,1.8,1.8v13.2c0,1-0.8,1.8-1.8,1.8h-0.6c-1,0-1.8-0.8-1.8-1.8v-1.8c0-1.5-2-2.1-2.8-0.8
			l-1.3,2.1h-0.4l-1.3-2.1c-0.8-1.3-2.8-0.7-2.8,0.8v1.8c0,1-0.8,1.8-1.8,1.8h-0.6c-1,0-1.8-0.8-1.8-1.8V98.4c0-1,0.8-1.8,1.8-1.8
			h1.4c0.6,0,1.2,0.3,1.6,0.9l2.2,3.7c0.7,1.2,2.4,1.2,3.1,0l2.2-3.7C288.6,96.9,289.2,96.5,289.9,96.5z"/>
	</g>
</g>
<g id="Layer_2">
</g>
</svg>
