<?xml version="1.0" encoding="utf-8"?>
<!-- Generator: Adobe Illustrator 26.0.2, SVG Export Plug-In . SVG Version: 6.00 Build 0)  -->
<svg version="1.1" xmlns="http://www.w3.org/2000/svg" xmlns:xlink="http://www.w3.org/1999/xlink" x="0px" y="0px"
	 viewBox="0 0 294 114" style="enable-background:new 0 0 294 114;" xml:space="preserve">
<style type="text/css">
	.st0{fill:url(#SVGID_1_);}
	.st1{fill:url(#SVGID_00000068646790101352491120000013434192488910725546_);}
	.st2{fill:url(#SVGID_00000066509638053153616210000013295149769508938942_);}
	.st3{fill:url(#SVGID_00000053530179212009467650000012637352125298939299_);}
	.st4{fill:url(#SVGID_00000062152091760408855870000011249272725617001125_);}
	.st5{fill:url(#SVGID_00000010276539394506574680000003828390304858264506_);}
	.st6{fill:url(#SVGID_00000049916978488493325920000015201198087698416812_);}
	.st7{fill:url(#SVGID_00000047757277594358098950000005518360762792200096_);}
</style>
<g id="Layer_1">
	<g>
		<g>
			<g>
				<path d="M112.5,10.1v55.8c0,4.7,3.8,8.4,8.4,8.4h17.3c4.7,0,8.4,3.8,8.4,8.4v0c0,4.7-3.8,8.4-8.4,8.4h-34.9
					c-4.7,0-8.4-3.8-8.4-8.4V10.1c0-4.7,3.8-8.4,8.4-8.4h0.8C108.7,1.6,112.5,5.4,112.5,10.1z"/>
				<path d="M213.6,10.1L213.6,10.1c0,4.7-3.8,8.4-8.4,8.4h-18.9c-4.7,0-8.4,3.8-8.4,8.4v4.4c0,4.7,3.8,8.4,8.4,8.4h17.9
					c4.7,0,8.4,3.8,8.4,8.4v0c0,4.7-3.8,8.4-8.4,8.4h-17.9c-4.7,0-8.4,3.8-8.4,8.4v17.7c0,4.7-3.8,8.4-8.4,8.4h-0.8
					c-4.7,0-8.4-3.8-8.4-8.4V10.1c0-4.7,3.8-8.4,8.4-8.4h36.6C209.8,1.6,213.6,5.4,213.6,10.1z"/>
			</g>
			<path d="M254.9,20.8L254.9,20.8c-0.4,1.1-0.4,2.3,0,3.4l9,26.8c1.2,3.4-1.4,7-5,7h-17.1h-0.1h-14.9c-2.2,0-4.3,1.4-5,3.5
				l-7.7,22.1c-1.2,3.4,1.3,7,5,7h7.8c2.3,0,4.3-1.5,5-3.6l3-8.9c0.7-2.2,2.7-3.6,5-3.6H268c2.3,0,4.3,1.5,5,3.6l3,8.9
				c0.7,2.2,2.7,3.6,5,3.6h7.9c3.6,0,6.2-3.6,5-7l-24.7-70.3c-1.5-4.3-7.4-4.8-9.6-0.8l-4.2,7.5C255.2,20.2,255,20.5,254.9,20.8z"/>
			<path d="M43.2,20.7L43.2,20.7c-0.4,1.1-0.4,2.3,0,3.4l9,26.8c1.2,3.4-1.4,7-5,7H30h-0.1H15c-2.2,0-4.3,1.4-5,3.5L2.3,83.5
				c-1.2,3.4,1.3,7,5,7h7.8c2.3,0,4.3-1.5,5-3.6l3-8.9c0.7-2.2,2.7-3.6,5-3.6h28.1c2.3,0,4.3,1.5,5,3.6l3,8.9c0.7,2.2,2.7,3.6,5,3.6
				h7.9c3.6,0,6.2-3.6,5-7L57.4,13.2c-1.5-4.3-7.4-4.8-9.6-0.8l-4.2,7.5C43.4,20.1,43.3,20.4,43.2,20.7z"/>
		</g>
		<g>
			<g>
				<linearGradient id="SVGID_1_" gradientUnits="userSpaceOnUse" x1="43.4629" y1="-16.9001" x2="251.1507" y2="133.9938">
					<stop  offset="0" style="stop-color:#E5ED8B"/>
					<stop  offset="1" style="stop-color:#10AE3C"/>
				</linearGradient>
				<path class="st0" d="M112.5,10.1v55.8c0,4.7,3.8,8.4,8.4,8.4h17.3c4.7,0,8.4,3.8,8.4,8.4v0c0,4.7-3.8,8.4-8.4,8.4h-34.9
					c-4.7,0-8.4-3.8-8.4-8.4V10.1c0-4.7,3.8-8.4,8.4-8.4h0.8C108.7,1.6,112.5,5.4,112.5,10.1z"/>
				
					<linearGradient id="SVGID_00000036955458962133694980000009854702288948139704_" gradientUnits="userSpaceOnUse" x1="43.4629" y1="-16.9001" x2="251.1507" y2="133.9938">
					<stop  offset="0" style="stop-color:#E5ED8B"/>
					<stop  offset="1" style="stop-color:#10AE3C"/>
				</linearGradient>
				<path style="fill:url(#SVGID_00000036955458962133694980000009854702288948139704_);" d="M213.6,10.1L213.6,10.1
					c0,4.7-3.8,8.4-8.4,8.4h-18.9c-4.7,0-8.4,3.8-8.4,8.4v4.4c0,4.7,3.8,8.4,8.4,8.4h17.9c4.7,0,8.4,3.8,8.4,8.4v0
					c0,4.7-3.8,8.4-8.4,8.4h-17.9c-4.7,0-8.4,3.8-8.4,8.4v17.7c0,4.7-3.8,8.4-8.4,8.4h-0.8c-4.7,0-8.4-3.8-8.4-8.4V10.1
					c0-4.7,3.8-8.4,8.4-8.4h36.6C209.8,1.6,213.6,5.4,213.6,10.1z"/>
			</g>
			
				<linearGradient id="SVGID_00000105427715564251757960000014961411478593438379_" gradientUnits="userSpaceOnUse" x1="43.4629" y1="-16.9001" x2="251.1507" y2="133.9938">
				<stop  offset="0" style="stop-color:#E5ED8B"/>
				<stop  offset="1" style="stop-color:#10AE3C"/>
			</linearGradient>
			<path style="fill:url(#SVGID_00000105427715564251757960000014961411478593438379_);" d="M254.9,20.8L254.9,20.8
				c-0.4,1.1-0.4,2.3,0,3.4l9,26.8c1.2,3.4-1.4,7-5,7h-17.1h-0.1h-14.9c-2.2,0-4.3,1.4-5,3.5l-7.7,22.1c-1.2,3.4,1.3,7,5,7h7.8
				c2.3,0,4.3-1.5,5-3.6l3-8.9c0.7-2.2,2.7-3.6,5-3.6H268c2.3,0,4.3,1.5,5,3.6l3,8.9c0.7,2.2,2.7,3.6,5,3.6h7.9c3.6,0,6.2-3.6,5-7
				l-24.7-70.3c-1.5-4.3-7.4-4.8-9.6-0.8l-4.2,7.5C255.2,20.2,255,20.5,254.9,20.8z"/>
			
				<linearGradient id="SVGID_00000167377124277942998050000010713522358753693105_" gradientUnits="userSpaceOnUse" x1="43.4629" y1="-16.9001" x2="251.1507" y2="133.9938">
				<stop  offset="0" style="stop-color:#E5ED8B"/>
				<stop  offset="1" style="stop-color:#10AE3C"/>
			</linearGradient>
			<path style="fill:url(#SVGID_00000167377124277942998050000010713522358753693105_);" d="M43.2,20.7L43.2,20.7
				c-0.4,1.1-0.4,2.3,0,3.4l9,26.8c1.2,3.4-1.4,7-5,7H30h-0.1H15c-2.2,0-4.3,1.4-5,3.5L2.3,83.5c-1.2,3.4,1.3,7,5,7h7.8
				c2.3,0,4.3-1.5,5-3.6l3-8.9c0.7-2.2,2.7-3.6,5-3.6h28.1c2.3,0,4.3,1.5,5,3.6l3,8.9c0.7,2.2,2.7,3.6,5,3.6h7.9c3.6,0,6.2-3.6,5-7
				L57.4,13.2c-1.5-4.3-7.4-4.8-9.6-0.8l-4.2,7.5C43.4,20.1,43.3,20.4,43.2,20.7z"/>
		</g>
	</g>
</g>
<g id="Layer_3">
	<g>
		<g>
			<path d="M267.8,98.4L267.8,98.4c-0.1,0.2-0.1,0.5,0,0.7l1.9,5.8c0.2,0.7-0.3,1.5-1,1.5h-3.6h0H262c-0.5,0-0.9,0.3-1,0.8l-1.6,4.8
				c-0.3,0.7,0.3,1.5,1,1.5h1.6c0.5,0,0.9-0.3,1-0.8l0.6-1.9c0.1-0.5,0.6-0.8,1-0.8h5.8c0.5,0,0.9,0.3,1,0.8l0.6,1.9
				c0.1,0.5,0.6,0.8,1,0.8h1.6c0.8,0,1.3-0.8,1-1.5l-5.1-15.2c-0.3-0.9-1.5-1-2-0.2l-0.9,1.6C267.9,98.3,267.9,98.3,267.8,98.4z"/>
			<g>
				<path d="M235.7,96.5h8.4c1.1,0,2.1,0.9,2.1,2.1l0,0c0,1.1-0.9,2.1-2.1,2.1h-1.3c-0.4,0-0.8,0.4-0.8,0.8v9.8
					c0,1.1-0.9,2.1-2.1,2.1h-0.1c-1.1,0-2.1-0.9-2.1-2.1v-9.8c0-0.4-0.4-0.8-0.8-0.8h-1.3c-1.1,0-2.1-0.9-2.1-2.1l0,0
					C233.6,97.5,234.5,96.5,235.7,96.5z"/>
				<path d="M252.1,108v0.1c0,0.6,0.5,1.2,1.2,1.2h4.2c0.6,0,1.2,0.5,1.2,1.2v1.7c0,0.6-0.5,1.2-1.2,1.2h-8.5
					c-0.6,0-1.2-0.5-1.2-1.2V97.7c0-0.6,0.5-1.2,1.2-1.2h8.4c0.6,0,1.2,0.5,1.2,1.2v1.7c0,0.6-0.5,1.2-1.2,1.2h-4.1
					c-0.6,0-1.2,0.5-1.2,1.2l0,0c0,0.6,0.5,1.2,1.2,1.2h3.5c0.6,0,1.2,0.5,1.2,1.2v1.6c0,0.6-0.5,1.2-1.2,1.2h-3.5
					C252.6,106.8,252.1,107.4,252.1,108z"/>
				<path d="M290.9,96.5h1.4c1,0,1.8,0.8,1.8,1.8v13.2c0,1-0.8,1.8-1.8,1.8h-0.6c-1,0-1.8-0.8-1.8-1.8v-1.8c0-1.5-2-2.1-2.8-0.8
					l-1.3,2.1h-0.4l-1.3-2.1c-0.8-1.3-2.8-0.7-2.8,0.8v1.8c0,1-0.8,1.8-1.8,1.8h-0.6c-1,0-1.8-0.8-1.8-1.8V98.4c0-1,0.8-1.8,1.8-1.8
					h1.4c0.6,0,1.2,0.3,1.6,0.9l2.2,3.7c0.7,1.2,2.4,1.2,3.1,0l2.2-3.7C289.6,96.9,290.2,96.5,290.9,96.5z"/>
			</g>
		</g>
		<g>
			
				<linearGradient id="SVGID_00000170271288487191651650000018101470151498850715_" gradientUnits="userSpaceOnUse" x1="235.3421" y1="93.5753" x2="292.9548" y2="114.9157">
				<stop  offset="0" style="stop-color:#8CC63F"/>
				<stop  offset="1" style="stop-color:#10AE3C"/>
			</linearGradient>
			<path style="fill:url(#SVGID_00000170271288487191651650000018101470151498850715_);" d="M267.8,98.4L267.8,98.4
				c-0.1,0.2-0.1,0.5,0,0.7l1.9,5.8c0.2,0.7-0.3,1.5-1,1.5h-3.6h0H262c-0.5,0-0.9,0.3-1,0.8l-1.6,4.8c-0.3,0.7,0.3,1.5,1,1.5h1.6
				c0.5,0,0.9-0.3,1-0.8l0.6-1.9c0.1-0.5,0.6-0.8,1-0.8h5.8c0.5,0,0.9,0.3,1,0.8l0.6,1.9c0.1,0.5,0.6,0.8,1,0.8h1.6
				c0.8,0,1.3-0.8,1-1.5l-5.1-15.2c-0.3-0.9-1.5-1-2-0.2l-0.9,1.6C267.9,98.3,267.9,98.3,267.8,98.4z"/>
			<g>
				
					<linearGradient id="SVGID_00000098213897028076567470000010574209513074695049_" gradientUnits="userSpaceOnUse" x1="235.3421" y1="93.5753" x2="292.9548" y2="114.9157">
					<stop  offset="0" style="stop-color:#8CC63F"/>
					<stop  offset="1" style="stop-color:#10AE3C"/>
				</linearGradient>
				<path style="fill:url(#SVGID_00000098213897028076567470000010574209513074695049_);" d="M235.7,96.5h8.4c1.1,0,2.1,0.9,2.1,2.1
					l0,0c0,1.1-0.9,2.1-2.1,2.1h-1.3c-0.4,0-0.8,0.4-0.8,0.8v9.8c0,1.1-0.9,2.1-2.1,2.1h-0.1c-1.1,0-2.1-0.9-2.1-2.1v-9.8
					c0-0.4-0.4-0.8-0.8-0.8h-1.3c-1.1,0-2.1-0.9-2.1-2.1l0,0C233.6,97.5,234.5,96.5,235.7,96.5z"/>
				
					<linearGradient id="SVGID_00000176018181742203676820000010929107686583529364_" gradientUnits="userSpaceOnUse" x1="235.3421" y1="93.5753" x2="292.9548" y2="114.9157">
					<stop  offset="0" style="stop-color:#8CC63F"/>
					<stop  offset="1" style="stop-color:#10AE3C"/>
				</linearGradient>
				<path style="fill:url(#SVGID_00000176018181742203676820000010929107686583529364_);" d="M252.1,108v0.1c0,0.6,0.5,1.2,1.2,1.2
					h4.2c0.6,0,1.2,0.5,1.2,1.2v1.7c0,0.6-0.5,1.2-1.2,1.2h-8.5c-0.6,0-1.2-0.5-1.2-1.2V97.7c0-0.6,0.5-1.2,1.2-1.2h8.4
					c0.6,0,1.2,0.5,1.2,1.2v1.7c0,0.6-0.5,1.2-1.2,1.2h-4.1c-0.6,0-1.2,0.5-1.2,1.2l0,0c0,0.6,0.5,1.2,1.2,1.2h3.5
					c0.6,0,1.2,0.5,1.2,1.2v1.6c0,0.6-0.5,1.2-1.2,1.2h-3.5C252.6,106.8,252.1,107.4,252.1,108z"/>
				
					<linearGradient id="SVGID_00000129191310261777695470000008059372395368034488_" gradientUnits="userSpaceOnUse" x1="235.3421" y1="93.5753" x2="292.9548" y2="114.9157">
					<stop  offset="0" style="stop-color:#8CC63F"/>
					<stop  offset="1" style="stop-color:#10AE3C"/>
				</linearGradient>
				<path style="fill:url(#SVGID_00000129191310261777695470000008059372395368034488_);" d="M290.9,96.5h1.4c1,0,1.8,0.8,1.8,1.8
					v13.2c0,1-0.8,1.8-1.8,1.8h-0.6c-1,0-1.8-0.8-1.8-1.8v-1.8c0-1.5-2-2.1-2.8-0.8l-1.3,2.1h-0.4l-1.3-2.1
					c-0.8-1.3-2.8-0.7-2.8,0.8v1.8c0,1-0.8,1.8-1.8,1.8h-0.6c-1,0-1.8-0.8-1.8-1.8V98.4c0-1,0.8-1.8,1.8-1.8h1.4
					c0.6,0,1.2,0.3,1.6,0.9l2.2,3.7c0.7,1.2,2.4,1.2,3.1,0l2.2-3.7C289.6,96.9,290.2,96.5,290.9,96.5z"/>
			</g>
		</g>
	</g>
</g>
<g id="Layer_2">
</g>
</svg>
