<?xml version="1.0" encoding="utf-8"?>
<!-- Generator: Adobe Illustrator 26.0.2, SVG Export Plug-In . SVG Version: 6.00 Build 0)  -->
<svg version="1.1" id="Layer_1" xmlns="http://www.w3.org/2000/svg" xmlns:xlink="http://www.w3.org/1999/xlink" x="0px" y="0px"
	 viewBox="0 0 119.3 38.7" style="enable-background:new 0 0 119.3 38.7;" xml:space="preserve">
<style type="text/css">
	.st0{fill:#2566AF;}
	.st1{fill:#E6A540;}
	.st2{fill:none;}
</style>
<g>
	<path class="st0" d="M51.7,38.1H42l6.1-37.4h9.7L51.7,38.1z M33.8,0.7l-9.3,25.7l-1.1-5.5l0,0L20.1,4c0,0-0.4-3.4-4.6-3.4H0.2
		L0,1.3c0,0,4.7,1,10.2,4.3l8.5,32.5h10.1L44.3,0.7C44.3,0.7,33.8,0.7,33.8,0.7z M110.3,38.1h8.9l-7.8-37.4h-7.8
		c-3.6,0-4.5,2.8-4.5,2.8L84.7,38.1h10.1l2-5.6h12.4C109.2,32.5,110.3,38.1,110.3,38.1z M99.6,24.8l5.1-14l2.9,14H99.6z M85.4,9.7
		l1.4-8c0,0-4.3-1.6-8.8-1.6c-4.8,0-16.3,2.1-16.3,12.4c0,9.7,13.5,9.8,13.5,14.9s-12.1,4.2-16.1,1l-1.4,8.4c0,0,4.3,2.1,11,2.1
		c6.6,0,16.7-3.4,16.7-12.8c0-9.7-13.6-10.6-13.6-14.9C71.8,6.8,81.3,7.4,85.4,9.7L85.4,9.7z"/>
</g>
<path class="st1" d="M23.4,20.8L20.1,4c0,0-0.4-3.4-4.6-3.4H0.2L0,1.3c0,0,7.4,1.5,14.4,7.3C21.2,14,23.4,20.8,23.4,20.8z"/>
<path class="st2" d="M0,0h119.3v38.7H0V0z"/>
</svg>
